# xmcd
#
# Track frame offsets:
#	150
#	19609
#	40144
#	59778
#	80822
#	102225
#	120969
#	142336
#	163766
#	184932
#	202832
#	223204
#	245761
#
# Disc length: 3544 seconds
#
# Revision: 0
# Processed by: cddbd v1.5.1PL0 Copyright (c) Steve Scherf et al.
# Submitted via: audiograbber 1.81.03
#
DISCID=c40dd60d
DTITLE=Olga Tañón - A puro fuego
DYEAR=2004
DGENRE=Merengue
TTITLE0=Cuando Tú No Estás
TTITLE1=Así Es La Vida
TTITLE2=El Frío De Tu Adiós
TTITLE3=Ahora Soy Mala
TTITLE4=Cómo Olvidar
TTITLE5=Es Mentiroso
TTITLE6=Presencié Tu Amor
TTITLE7=Vendrás Llorando
TTITLE8=Me Cambio Por Ella
TTITLE9=Llegó El Amor
TTITLE10=Muchacho Malo
TTITLE11=Ya Me Cansé
TTITLE12=Miénteme
EXTD=YEAR: 2004
EXTT0=
EXTT1=
EXTT2=
EXTT3=
EXTT4=
EXTT5=
EXTT6=
EXTT7=
EXTT8=
EXTT9=
EXTT10=
EXTT11=
EXTT12=
PLAYORDER=
